<svg xmlns="http://www.w3.org/2000/svg" xmlns:xlink="http://www.w3.org/1999/xlink" id="Layer_1" x="0px" y="0px" width="104px" height="104px" viewBox="0 0 104 104" xml:space="preserve">
<g>
	<rect x="-248" fill="#F1F1F2" width="104.001" height="104"></rect>
	<g>
		<path fill="#363890" d="M-173.503,78.869c-3.265,1.703-13.951,7.641-17.221,9.332c-0.584,0.303-1.639,0.494-2.062,0.18    c-4.605-3.422-9.126-6.953-14.128-10.809c2.881-1.574,5.345-2.93,7.816-4.27c1.305-0.707,2.566-1.551,3.95-2.051    c2.242-0.811,2.727-2.385,2.354-4.469c-0.064-0.355-0.223-0.797-0.49-1c-4.903-3.732-9.83-7.436-14.948-11.291    c-2.317,3.229-5.947,5.574-5.319,10.342c0.219,1.668-0.013,3.41-0.169,5.105c-0.055,0.6-0.496,1.166-0.76,1.746    c-0.305-0.543-0.856-1.076-0.875-1.629c-0.192-5.465-0.424-10.934-0.353-16.398c0.023-1.81-0.993-2.188-2.122-2.905    c-1.284-0.814-1.861,0.111-2.729,0.709c-2.906,2.001-4.653,4.896-6.337,7.86c-0.38,0.672-0.826,1.305-1.241,1.955    c-0.213-0.016-0.426-0.031-0.639-0.047c0-0.639-0.211-1.377,0.034-1.902c1.811-3.904,3.712-7.769,5.599-11.673    c-0.008-0.014-0.026-0.104-0.08-0.135c-4.673-2.781-6.344-7.182-6.608-12.318c-0.196-3.823-0.418-7.646-0.49-11.471    c-0.046-2.46,1.121-4.315,3.347-5.484c1.943-1.021,3.836-2.14,5.783-3.155c1.923-1.003,3.802-0.884,5.113,0.94    c1.229,1.707,2.193,3.608,3.229,5.449c1.902,3.382,3.771,6.783,5.657,10.173c0.068,0.122,0.174,0.224,0.265,0.333    c3.355,4.061,3.939,4.184,8.479,1.745c3.367-1.809,6.732-3.625,10.166-5.474c8.768,6.719,17.541,13.438,26.605,20.383    c-1.023,0.664-1.732,1.195-2.502,1.611c-7.657,4.149-15.325,8.282-22.992,12.417c-1.665,0.898-2.615,4.625-1.344,6    c1.047,1.131,2.369,2.041,3.682,2.871L-173.503,78.869z M-188.292,29.14c-10.022,5.404-19.971,10.769-30.088,16.226    c8.201,6.281,16.186,12.417,24.213,18.495c0.436,0.33,1.377,0.469,1.832,0.227c9.672-5.146,19.309-10.363,29.195-15.696    C-171.634,41.89-179.955,35.522-188.292,29.14z M-203.142,36.229c-5.644-3.789-8.235-9.376-10.709-15.052    c-0.506-1.162-1.076-2.307-1.727-3.393c-1.541-2.572-2.992-2.956-5.664-1.582c-1.257,0.647-2.451,1.452-3.765,1.944    c-3.591,1.344-4.664,4.175-4.43,7.597c0.323,4.728,0.677,9.478,1.479,14.138c0.305,1.77,1.532,3.795,2.965,4.871    c3.142,2.36,6.667,4.221,10.078,6.209c0.74,0.432,1.663,0.547,2.502,0.807c0.055-0.117,0.109-0.238,0.164-0.357    c-2.436-1.908-4.87-3.814-7.701-6.033C-214.221,42.259-208.812,39.313-203.142,36.229z M-189.767,64.381    c-0.176-0.104-0.352-0.209-0.527-0.313c-0.538,0.68-1.512,1.344-1.539,2.045c-0.154,3.814-0.107,7.639-0.027,11.457    c0.01,0.439,0.654,0.867,1.004,1.299c0.363-0.395,1.036-0.785,1.043-1.186C-189.739,73.25-189.767,68.816-189.767,64.381z     M-213.312,58.92c1.368-1.76,2.385-3.068,3.544-4.559c-1.462,0-2.608,0-3.848,0C-213.519,55.811-213.432,57.113-213.312,58.92z     M-222.049,48.661c-0.145-0.072-0.289-0.145-0.434-0.215c-1.111,2.125-2.222,4.25-3.334,6.376    c0.177,0.086,0.353,0.174,0.528,0.262C-224.208,52.942-223.129,50.802-222.049,48.661z"></path>
		<path fill="#D8D6EB" d="M-188.292,29.14c8.338,6.382,16.658,12.75,25.152,19.251c-9.887,5.333-19.523,10.55-29.195,15.696    c-0.455,0.242-1.396,0.104-1.832-0.227c-8.028-6.078-16.013-12.214-24.213-18.495C-208.264,39.909-198.314,34.544-188.292,29.14z"></path>
		<path fill="#D8D6EB" d="M-203.142,36.229c-5.669,3.085-11.079,6.03-16.807,9.147c2.832,2.219,5.266,4.125,7.701,6.033    c-0.055,0.119-0.109,0.24-0.164,0.357c-0.839-0.26-1.763-0.375-2.502-0.807c-3.412-1.988-6.936-3.849-10.078-6.209    c-1.433-1.076-2.66-3.102-2.965-4.871c-0.802-4.66-1.156-9.41-1.479-14.138c-0.234-3.422,0.838-6.253,4.43-7.597    c1.313-0.492,2.508-1.297,3.765-1.944c2.671-1.374,4.123-0.99,5.664,1.582c0.651,1.086,1.221,2.231,1.727,3.393    C-211.377,26.853-208.786,32.439-203.142,36.229z"></path>
		<path fill="#D8D6EB" d="M-175.361,78.869c-3.836,2.061-12.147,6.355-15.785,8.236c-0.451,0.234-1.309,0.258-1.68-0.02    c-4.132-3.098-8.205-6.273-12.464-9.561c4.198-2.268,8.203-4.432,12.512-6.76c0,2.402,0.044,4.498-0.015,6.59    c-0.043,1.51,0.78,2.371,2.102,2.385c1.316,0.016,1.871-0.953,1.828-2.332c-0.075-2.527-0.021-5.057-0.021-8.055    C-187.402,70.506-176.864,77.234-175.361,78.869z"></path>
		<path fill="#D8D6EB" d="M-189.767,64.381c0,4.436,0.028,8.869-0.047,13.303c-0.007,0.4-0.68,0.791-1.043,1.186    c-0.35-0.432-0.994-0.859-1.004-1.299c-0.08-3.818-0.127-7.643,0.027-11.457c0.027-0.701,1.001-1.365,1.539-2.045    C-190.119,64.172-189.943,64.277-189.767,64.381z"></path>
		<path fill="#D8D6EB" d="M-213.312,58.92c-0.12-1.807-0.207-3.109-0.303-4.559c1.24,0,2.385,0,3.848,0    C-210.926,55.852-211.943,57.16-213.312,58.92z"></path>
		<path fill="#D8D6EB" d="M-222.049,48.661c-1.08,2.141-2.16,4.281-3.239,6.423c-0.176-0.088-0.352-0.176-0.528-0.262    c1.112-2.126,2.223-4.251,3.334-6.376C-222.338,48.517-222.193,48.589-222.049,48.661z"></path>
	</g>
</g>
<g>
	<rect x="-124" fill="#F1F1F2" width="104" height="104"></rect>
	<g>
		<path fill="#363890" d="M-88.709,68.957c2.881-1.576,5.345-2.93,7.816-4.27c1.305-0.709,2.566-1.553,3.95-2.053    c2.242-0.809,2.728-2.383,2.354-4.468c-0.064-0.356-0.223-0.798-0.491-1.001c-4.903-3.731-9.83-7.434-14.947-11.29    c-2.317,3.229-5.947,5.575-5.319,10.342c0.219,1.668-0.013,3.409-0.169,5.104c-0.055,0.602-0.496,1.167-0.76,1.748    c-0.305-0.543-0.856-1.076-0.875-1.629c-0.192-5.465-0.424-10.936-0.353-16.4c0.023-1.808-0.993-2.188-2.122-2.903    c-1.284-0.815-1.861,0.11-2.729,0.708c-2.906,2.002-4.653,4.895-6.337,7.861c-0.38,0.67-0.826,1.303-1.241,1.954    c-0.213-0.016-0.426-0.031-0.639-0.047c0-0.64-0.211-1.377,0.034-1.902c1.811-3.905,3.712-7.769,5.599-11.673    c-0.008-0.014-0.026-0.104-0.08-0.135c-4.673-2.781-6.344-7.181-6.608-12.318c-0.196-3.822-0.418-7.646-0.49-11.471    c-0.046-2.461,1.121-4.315,3.347-5.484c1.943-1.021,3.836-2.141,5.783-3.155c1.923-1.003,3.802-0.884,5.113,0.94    c1.229,1.707,2.193,3.608,3.229,5.449c1.902,3.382,3.771,6.782,5.657,10.173c0.068,0.123,0.174,0.224,0.265,0.333    c3.355,4.061,3.939,4.184,8.479,1.745c3.367-1.809,6.731-3.624,10.166-5.474c8.768,6.719,17.542,13.438,26.605,20.383    c-1.024,0.664-1.732,1.195-2.501,1.611c-7.658,4.15-15.326,8.282-22.992,12.417c-1.666,0.898-2.616,4.626-1.344,6    c1.046,1.132,2.368,2.042,3.681,2.87c0.365,0.231,1.202-0.042,1.706-0.307c3.883-2.041,7.754-4.104,11.593-6.227    c2.449-1.354,4.716-1.214,6.919,0.498c1.68,1.307,3.333,2.657,5.106,3.825c0.551,0.362,1.571,0.47,2.172,0.214    c1.686-0.719,3.25-1.719,4.891-2.548c1.703-0.862,2.513-0.457,2.336,1.414c-0.526,5.563-2.047,10.704-6.994,14.083    c1.84,4.279,3.692,8.533,5.479,12.814c0.23,0.549,0.121,1.24,0.169,1.865c-0.283,0.078-0.566,0.156-0.85,0.234    c-1.129-2.152-2.331-4.27-3.36-6.467c-0.577-1.23-1.302-1.577-2.687-1.789c-4.12-0.629-7.154,0.607-9.042,4.334    c-0.609,1.203-1.242,2.511-1.368,3.818c-0.238,2.467-0.081,4.971-0.165,7.457c-0.022,0.674-0.325,1.338-0.499,2.008    c-0.235,0-0.469,0-0.705,0c-0.171-0.666-0.473-1.326-0.494-1.995c-0.163-5.323-0.431-10.651-0.327-15.972    c0.05-2.548-2.051-2.363-3.284-3.207c-0.399-0.273-1.716,0.238-2.211,0.768c-1.38,1.473-2.63,3.087-3.778,4.75    c-1.159,1.678-2.133,3.482-3.189,5.232c-0.253-0.047-0.506-0.092-0.759-0.139c0.03-0.645-0.131-1.379,0.124-1.918    c1.541-3.261,3.195-6.468,4.766-9.715c0.336-0.693,0.48-1.479,0.713-2.223c-0.813,0.199-1.702,0.248-2.422,0.623    c-3.265,1.703-6.462,3.535-9.732,5.229c-0.583,0.302-1.639,0.494-2.061,0.18C-79.186,76.344-83.707,72.811-88.709,68.957z     M-70.088,20.524c-10.021,5.403-19.971,10.77-30.088,16.226c8.201,6.281,16.186,12.416,24.214,18.496    c0.435,0.33,1.376,0.469,1.832,0.227c9.672-5.147,19.308-10.363,29.195-15.697C-53.43,33.273-61.75,26.906-70.088,20.524z     M-84.937,27.612c-5.644-3.789-8.235-9.376-10.709-15.052c-0.506-1.162-1.076-2.307-1.727-3.394    c-1.541-2.571-2.992-2.955-5.664-1.582c-1.257,0.647-2.451,1.452-3.765,1.944c-3.591,1.344-4.664,4.175-4.43,7.597    c0.323,4.728,0.677,9.478,1.479,14.138c0.305,1.77,1.532,3.796,2.965,4.871c3.142,2.36,6.667,4.221,10.078,6.21    c0.74,0.431,1.663,0.547,2.502,0.807c0.055-0.118,0.109-0.238,0.164-0.357c-2.436-1.908-4.87-3.815-7.701-6.034    C-96.016,33.643-90.606,30.697-84.937,27.612z M-40.777,62.037c-2.324-1.738-4.223-3.184-6.149-4.593    c-1.899-1.388-3.872-1.504-5.966-0.363c-3.972,2.163-7.994,4.237-11.958,6.414c-2.115,1.162-2.31,1.96-0.634,3.788    c2.148,2.346,4.396,4.631,6.823,6.68c3.784,3.195,4.943,2.94,7.655-1.186C-48.313,68.68-46.417,63.879-40.777,62.037z     M-61.873,72.586c-1.503-1.635-3.075-3.053-4.263-4.74c-0.766-1.087-0.969-2.57-1.424-3.876c0.215-0.101,0.43-0.202,0.644-0.303    c-1.14-0.888-2.281-1.776-3.762-2.93c0,2.998-0.055,5.528,0.021,8.054c0.042,1.381-0.513,2.35-1.829,2.334    c-1.321-0.014-2.144-0.875-2.102-2.386c0.06-2.093,0.015-4.188,0.015-6.589c-4.309,2.327-8.314,4.491-12.512,6.758    c4.259,3.288,8.332,6.465,12.463,9.563c0.371,0.277,1.229,0.253,1.68,0.02C-69.303,76.609-65.709,74.646-61.873,72.586z     M-53.371,77.492c6.119,1.994,10.543-2.326,15.047-5.18c4.572-2.897,5.076-8.214,5.749-13.622    c-3.411,1.812-6.354,3.456-9.374,4.95c-2.366,1.171-4.121,2.875-5.522,5.095C-49.307,71.643-51.308,74.447-53.371,77.492z     M-71.562,55.766c-0.176-0.104-0.352-0.209-0.528-0.314c-0.538,0.681-1.512,1.344-1.539,2.046    c-0.153,3.813-0.107,7.639-0.027,11.458c0.009,0.439,0.654,0.866,1.004,1.299c0.363-0.395,1.036-0.785,1.042-1.187    C-71.534,64.635-71.562,60.2-71.562,55.766z M-44.527,79.009c2.053,0.113,3.64,0.2,5.555,0.306    c-0.723-1.595-1.315-2.902-2.049-4.52C-42.207,76.221-43.214,77.431-44.527,79.009z M-95.106,50.303    c1.368-1.759,2.385-3.066,3.544-4.558c-1.462,0-2.608,0-3.848,0C-95.313,47.193-95.227,48.498-95.106,50.303z M-50.589,84.665    c1.363-1.71,2.327-2.917,3.439-4.312c-1.37,0-2.375,0-3.439,0C-50.589,81.658-50.589,82.828-50.589,84.665z M-59.1,75.16    c-0.155-0.117-0.31-0.236-0.465-0.354c-1.448,2.817-2.896,5.637-4.345,8.454c0.146,0.076,0.292,0.15,0.438,0.226    C-62.014,80.711-60.557,77.936-59.1,75.16z M-103.844,40.045c-0.145-0.072-0.289-0.144-0.434-0.215    c-1.111,2.125-2.222,4.25-3.334,6.375c0.177,0.088,0.353,0.176,0.528,0.263C-106.003,44.327-104.924,42.186-103.844,40.045z"></path>
		<path fill="#D8D6EB" d="M-70.088,20.524c8.338,6.382,16.658,12.749,25.153,19.251c-9.888,5.334-19.523,10.55-29.195,15.697    c-0.456,0.242-1.397,0.104-1.832-0.227c-8.028-6.08-16.013-12.215-24.214-18.496C-90.059,31.294-80.109,25.928-70.088,20.524z"></path>
		<path fill="#D8D6EB" d="M-84.937,27.612c-5.669,3.085-11.079,6.03-16.807,9.147c2.832,2.219,5.266,4.126,7.701,6.034    c-0.055,0.119-0.109,0.239-0.164,0.357c-0.839-0.26-1.763-0.376-2.502-0.807c-3.412-1.989-6.936-3.85-10.078-6.21    c-1.433-1.075-2.66-3.102-2.965-4.871c-0.802-4.66-1.156-9.41-1.479-14.138c-0.234-3.422,0.838-6.253,4.43-7.597    c1.313-0.492,2.508-1.297,3.765-1.944c2.671-1.373,4.123-0.989,5.664,1.582c0.651,1.087,1.221,2.231,1.727,3.394    C-93.172,18.236-90.581,23.823-84.937,27.612z"></path>
		<path fill="#D8D6EB" d="M-40.777,62.037c-5.64,1.842-7.535,6.643-10.229,10.74c-2.712,4.126-3.872,4.381-7.655,1.186    c-2.427-2.049-4.675-4.334-6.823-6.68c-1.676-1.828-1.481-2.626,0.634-3.788c3.964-2.177,7.986-4.251,11.958-6.414    c2.094-1.141,4.066-1.024,5.966,0.363C-45,58.854-43.102,60.299-40.777,62.037z"></path>
		<path fill="#D8D6EB" d="M-61.873,72.586c-3.836,2.061-7.43,4.023-11.068,5.904c-0.452,0.233-1.309,0.258-1.68-0.02    c-4.131-3.098-8.204-6.274-12.463-9.563c4.198-2.267,8.203-4.431,12.512-6.758c0,2.401,0.044,4.496-0.015,6.589    c-0.042,1.511,0.781,2.372,2.102,2.386c1.316,0.016,1.871-0.953,1.829-2.334c-0.076-2.525-0.021-5.056-0.021-8.054    c1.481,1.153,2.622,2.042,3.762,2.93c-0.214,0.101-0.429,0.202-0.644,0.303c0.456,1.306,0.659,2.789,1.424,3.876    C-64.948,69.533-63.376,70.951-61.873,72.586z"></path>
		<path fill="#D8D6EB" d="M-53.371,77.492c2.063-3.045,4.064-5.85,5.9-8.757c1.401-2.22,3.156-3.924,5.522-5.095    c3.019-1.494,5.962-3.139,9.374-4.95c-0.673,5.408-1.177,10.725-5.749,13.622C-42.828,75.166-47.252,79.486-53.371,77.492z"></path>
		<path fill="#D8D6EB" d="M-71.562,55.766c0,4.435,0.028,8.869-0.047,13.302c-0.006,0.401-0.679,0.792-1.042,1.187    c-0.35-0.433-0.995-0.859-1.004-1.299c-0.081-3.819-0.126-7.645,0.027-11.458c0.027-0.702,1.001-1.365,1.539-2.046    C-71.914,55.557-71.738,55.661-71.562,55.766z"></path>
		<path fill="#D8D6EB" d="M-44.527,79.009c1.313-1.578,2.32-2.788,3.506-4.214c0.734,1.617,1.326,2.925,2.049,4.52    C-40.888,79.209-42.475,79.122-44.527,79.009z"></path>
		<path fill="#D8D6EB" d="M-95.106,50.303c-0.12-1.805-0.207-3.109-0.303-4.558c1.24,0,2.385,0,3.848,0    C-92.721,47.236-93.738,48.544-95.106,50.303z"></path>
		<path fill="#D8D6EB" d="M-50.589,84.665c0-1.837,0-3.007,0-4.312c1.064,0,2.069,0,3.439,0    C-48.263,81.748-49.226,82.955-50.589,84.665z"></path>
		<path fill="#D8D6EB" d="M-59.1,75.16c-1.458,2.775-2.915,5.551-4.373,8.325c-0.146-0.075-0.292-0.149-0.438-0.226    c1.449-2.817,2.897-5.637,4.345-8.454C-59.41,74.924-59.255,75.043-59.1,75.16z"></path>
		<path fill="#D8D6EB" d="M-103.844,40.045c-1.08,2.141-2.16,4.282-3.239,6.423c-0.176-0.087-0.352-0.175-0.528-0.263    c1.112-2.125,2.223-4.25,3.334-6.375C-104.133,39.901-103.988,39.973-103.844,40.045z"></path>
	</g>
</g>
<g>
	<rect fill="#F1F1F2" width="104" height="104"></rect>
	<g>
		<defs>
			<rect id="SVGID_1_" width="104" height="104"></rect>
		</defs>
		<clipPath id="SVGID_2_">
			<use xlink:href="#SVGID_1_"></use>
		</clipPath>
		<g clip-path="url(#SVGID_2_)">
			<path fill="#363890" d="M58.697,55.104c10.398,7.957,20.443,15.673,30.562,23.291c0.514,0.388,1.799,0.197,2.491-0.168     c8.063-4.249,16.085-8.573,24.106-12.9c3.866-2.085,7.707-4.217,11.861-6.492c-10.396-7.945-20.45-15.658-30.569-23.285     c-0.487-0.367-1.683-0.248-2.313,0.089C82.896,42.018,70.993,48.463,58.697,55.104z M9.996-21.578     C-0.508-15.91-10.196-10.682-20.158-5.307C-9.822,2.596,0.224,10.325,10.369,17.92c0.602,0.449,2.16,0.104,3.02-0.351     c9.54-5.046,19.034-10.181,28.532-15.308c2.258-1.219,4.483-2.496,6.909-3.851C38.891-9.197,29.211-16.523,19.649-24     c-1.808-1.413-3.163-1.706-4.827,0.093 M26.328,30.258c8.797,6.766,17.57,13.069,25.791,20.023     c4.169,3.526,7.274,3.591,11.885,0.859c10.14-6.008,20.681-11.338,31.332-17.092C84.723,25.917,74.342,17.963,63.914,9.973     C51.42,16.716,38.996,23.421,26.328,30.258z M53.236,77.225c2.184,3.11,4.139,5.823,6.016,8.59c1.639,2.414,3.119,4.938,4.8,7.32     c1.619,2.295,3.909,2.882,6.284,1.41c4.58-2.839,9.13-5.748,13.49-8.906c2.594-1.879,2.442-2.871-0.162-4.926     c-3.826-3.018-7.719-5.951-11.603-8.895c-2.405-1.822-4.958-2.172-7.681-0.672C60.608,73.223,56.82,75.271,53.236,77.225z      M-23.361,19.742c2.316,3.365,4.435,6.391,6.496,9.452c1.333,1.979,2.479,4.093,3.896,6.008c2.189,2.959,3.892,3.562,7.049,1.722     c4.573-2.664,8.969-5.663,13.254-8.775c2.32-1.687,2.209-2.894-0.021-4.654c-4.029-3.18-8.121-6.283-12.249-9.334     c-1.775-1.313-3.864-2.025-5.979-0.967C-15.232,15.354-19.467,17.682-23.361,19.742z M42.1,69.568     c1.154,2.172,2.521,0.717,3.782-0.164c2.614-1.825,5.221-3.676,7.696-5.682c2.291-1.855,2.314-2.777,0.03-4.605     c-4.083-3.266-8.255-6.428-12.475-9.516c-1.687-1.234-3.665-1.898-5.745-0.836c-4.288,2.191-8.552,4.43-12.452,6.455     c2.577,3.873,4.894,7.395,7.257,10.887c1.337,1.977,2.688,3.951,4.146,5.839c1.245,1.612,3.026,2.041,4.726,0.983     C40.157,72.249,40.876,70.967,42.1,69.568z M90.844,86.788c-4.904,2.642-9.295,5.007-14.379,7.745     c2.354,2.484,4.249,4.74,6.415,6.696c2.163,1.954,4.681,3.515,6.884,5.43c1.271,1.103,2.223,1.194,3.691,0.354     c4.299-2.457,8.704-4.725,13.059-7.083c1.577-0.854,3.127-1.759,4.863-2.739c-5.242-4.006-10.199-7.792-15.606-11.923     c0,3.642-0.032,6.71,0.012,9.778c0.026,1.818-0.673,2.898-2.599,2.889c-1.886-0.011-2.358-1.211-2.346-2.836     C90.859,92.543,90.844,89.985,90.844,86.788z M16.879,24.824c0,3.652-0.049,6.743,0.018,9.832     c0.04,1.845-0.746,2.955-2.571,2.948c-1.759-0.007-2.359-1.176-2.316-2.864c0.068-2.678,0.019-5.359,0.019-8.691     c-4.419,3.404-8.245,6.352-12.32,9.49c0.922,1.359,1.652,3.063,2.91,4.166c2.792,2.445,5.814,4.637,8.826,6.815     c0.581,0.421,1.738,0.687,2.301,0.394c6.222-3.24,12.379-6.605,18.82-10.08C27.301,32.804,22.328,28.997,16.879,24.824z      M-11.045,39.484c-2.358-3.377-5.029-6.407-6.796-9.896c-3.724-7.354-10.778-10.872-17.043-16.147     c0.478,1.941,0.681,3.352,1.173,4.652c1.402,3.709,2.08,8.146,4.592,10.872c3.81,4.138,8.822,7.223,13.559,10.407     C-14.447,40.122-12.402,39.484-11.045,39.484z M65.526,96.763c-2.222-3.103-4.821-5.866-6.409-9.124     c-3.699-7.594-10.766-11.391-17.165-16.148c0.978,3.871,2.085,7.657,3.524,11.313c0.76,1.934,1.753,4.028,3.252,5.365     c3.153,2.814,6.664,5.242,10.119,7.699C60.956,97.367,63.311,97.943,65.526,96.763z M11.243,48.963     c0.994,3.375,1.565,6.145,2.629,8.711c1.235,2.982,2.368,6.295,4.51,8.545c2.944,3.094,6.717,5.441,10.283,7.891     c2.659,1.828,3.95,1.742,6.357,0.602c-2.049-2.853-4.608-5.538-6.136-8.719C25.184,58.281,18.06,54.391,11.243,48.963z      M46.864,18.121c4.917-2.8,9.968-5.365,14.906-8.128c1.472-0.823,2.56-1.049,3.956,0.218c1.761,1.598,3.779,2.914,5.689,4.354     l0.816,0.666c19.174,14.699,38.116,29.22,57.554,44.121c-6.674,3.632-12.81,6.973-19.126,10.411l-1.854,1.036     c-2.463,1.155-4.818,2.535-7.538,4.01L96.49,77.35c-1.297,1.074-0.978,6.523,0.514,7.685c4.406,3.431,8.851,6.813,13.268,10.231     c0.901,0.697,1.746,1.471,2.884,2.436c-1.276,0.769-2.288,1.43-3.346,2.004c-5.521,2.998-11.084,5.924-16.563,8.996     c-1.303,0.731-2.127,0.656-3.26-0.274c-2.668-2.19-5.464-4.224-8.463-6.515c0.481,3.398,3.242,5.907,2.793,9.186     c-0.29,0.125-0.581,0.25-0.871,0.375c-1.376-2.312-2.682-4.668-4.145-6.923c-1.818-2.806-3.685-5.593-5.729-8.233     c-0.416-0.539-1.775-0.689-2.594-0.516c-3.813,0.806-5.305,2.893-5.217,7.145c0.122,5.9-0.891,11.828-1.479,17.737     c-0.061,0.61-0.535,1.18-1.153,2.468c-0.495-1.275-0.905-1.844-0.907-2.412c-0.012-3.287-0.377-6.659,0.23-9.84     c0.91-4.779-2.358-7.625-4.508-10.856c-0.699-1.051-3.459-0.673-5.25-1.069c-2.331-0.515-3.24,0.861-4.141,2.652     c-1.141,2.27-2.542,4.408-3.831,6.604c-0.319-0.064-0.638-0.131-0.957-0.195c0.048-0.732-0.104-1.553,0.175-2.183     c2.148-4.851,4.379-9.665,6.4-14.087c-1.996-2.939-4.184-5.586-5.711-8.571c-1.512-2.954-2.358-6.251-3.531-9.491     c-1.467,0.604-3.004,1.081-4.359,1.869c-0.582,0.339-1.063,1.299-1.126,2.018c-0.612,6.975-1.108,13.959-1.69,20.938     c-0.059,0.696-0.458,1.364-0.699,2.045c-0.234,0.012-0.469,0.022-0.703,0.033c-0.237-0.637-0.675-1.272-0.678-1.91     c-0.014-3.107-0.383-6.318,0.258-9.302c1.047-4.882-2.288-7.832-4.436-11.175c-0.676-1.053-3.439-0.731-5.234-1.104     c-2.232-0.464-3.302,0.647-4.209,2.552c-1.115,2.34-2.586,4.51-3.903,6.753c-0.347-0.117-0.692-0.233-1.038-0.351     c0.144-0.873,0.109-1.824,0.46-2.604c2.13-4.739,4.347-9.438,6.532-14.144c-6.542-5.518-8.701-13-9.635-21.057     c-0.051-0.441-0.396-0.952-0.756-1.238c-1.797-1.421-3.645-2.777-5.914-3.882c1.21,2.759,2.475,5.497,3.593,8.294     c0.29,0.726,0.128,1.634-0.195,2.506c-4.523-5.103-6.039-12.055-11.63-16.207c-0.045,0-0.144-0.029-0.216,0.004     c-6.28,2.758-6.107,2.766-6.428,9.771c-0.238,5.213-0.964,10.406-1.57,15.596c-0.07,0.604-0.765,1.136-1.171,1.7     c-0.307-0.657-0.887-1.321-0.874-1.972c0.075-3.55,0.296-7.096,0.466-10.644c0.195-4.094-2.624-6.876-4.756-9.755     c-0.773-1.043-3.518-0.49-5.283-0.963c-2.584-0.689-3.098,1.16-3.957,2.785c-0.911,1.722-1.87,3.428-2.955,5.043     c-0.445,0.663-1.276,1.068-1.932,1.592c-0.08-0.066-0.155-0.14-0.224-0.219c0.776-2.226,1.408-4.515,2.36-6.662     c1.534-3.465,3.279-6.836,4.926-10.228c-6.041-5.546-11.479-18.619-8.93-21.774c2.879,2.175,5.808,4.301,8.627,6.563     c1.073,0.861,1.848,0.849,3.009,0.164c3.585-2.113,7.243-4.104,10.897-6.096c2.348-1.28,4.756-1.477,6.992,0.207     c4.674,3.517,9.316,7.078,13.919,10.688c0.731,0.573,1.185,1.501,2.146,2.762c0.488-0.907,1.219-1.64,1.173-2.317     c-0.09-1.318-0.183-3.162-1.028-3.824c-10.75-8.4-21.633-16.631-33.068-25.352c3.529-1.978,6.621-3.71,10.07-5.643l1.972-1.094     c2.452-1.18,4.822-2.533,7.479-3.962l2.584-1.33c5.148-2.876,10.369-5.621,15.541-8.458c1.271-0.697,2.266-0.887,3.588,0.143     c8.113,6.323,16.313,12.534,24.471,18.801c2.292,1.76,4.537,3.581,7.236,5.718C44.242,2.566,38.18,5.881,31.816,9.361     l-1.89,1.045c-2.449,1.18-4.813,2.535-7.67,4.074l-0.696,0.373c-0.916,0.48-1.623,0.852-2.33,1.221     c-3.1,1.615-3.492,6.764-0.673,8.929c1.829,1.405,3.659,2.812,5.515,4.181c0.379,0.281,1.03,0.699,1.292,0.559     c2.981-1.592,5.911-3.28,9.056-5.057l0.91-0.402c2.729-1.469,5.439-2.926,8.489-4.566L46.864,18.121z M56.151,63.311     c-3.555,2.715-6.833,5.218-10.462,7.989c2.023,2.041,3.949,3.983,5.858,5.909c2.681-1.568,5.025-2.941,6.923-4.051     c0-3.883,0-7.352,0-11.617l-0.032-2.221c0.342-1.317,0.011-2.755-1.041-3.617c-1.304-1.07-2.665-2.069-4.005-3.094     C46.85,47.611,40.305,42.614,33.91,37.73c-6.934,3.756-13.65,7.395-20.645,11.184c2.955,2.25,5.555,4.229,8.099,6.167     c4.415-2.398,8.602-4.914,13.013-6.938c1.569-0.72,4.206-1.021,5.465-0.18c5.367,3.584,10.417,7.648,15.534,11.6     c0.581,0.449,1.424,1.246,1.376,2.109L56.151,63.311z M77.529,75.023c1.895,1.383,3.529,2.584,5.171,3.775     c5.155,3.74,5.197,5.379,0.157,9.264c-2.055,1.582-4.172,3.083-6.26,4.621c0.098,0.156,0.195,0.313,0.294,0.469     c3.389-1.803,6.694-3.791,10.191-5.352c3.095-1.383,4.663-3.26,3.546-6.693c-3.369-2.553-6.82-5.168-10.32-7.819l-1.313-0.895     c-5.272-4.03-10.287-7.864-15.585-11.913c0,3.496,0,6.54,0,9.613c5.36-1.246,5.36-1.246,12.96,3.75L77.529,75.023z      M15.799,18.495c-0.221-0.141-0.441-0.28-0.661-0.421c-0.669,0.677-1.898,1.337-1.919,2.033     c-0.16,5.438-0.089,10.882-0.089,16.264c1.884,0.414,2.708,0.039,2.688-1.732C15.762,29.258,15.799,23.876,15.799,18.495z      M94.678,77.959c-1.258,1.243-2.578,1.936-2.603,2.67c-0.179,5.363-0.096,10.735-0.096,16.104     c0.284,0.161,0.568,0.322,0.853,0.483c0.615-0.643,1.747-1.271,1.764-1.931C94.74,89.822,94.678,84.354,94.678,77.959z      M59.744,57.716c0,4.804,0,9.472,0,14.252c1.748-0.144,2.574-0.735,2.501-2.47c-0.11-2.64-0.163-5.296,0.013-7.929     C62.393,59.561,61.482,58.514,59.744,57.716z M-25.617,39.644c2.087,0.211,3.776,0.382,6.132,0.62     c-1.473-1.92-2.575-3.357-3.909-5.094C-24.258,36.909-24.867,38.134-25.617,39.644z M56.805,97.27     c-1.277-1.649-2.327-3.004-3.621-4.674c-0.887,1.822-1.511,3.104-2.274,4.674C52.947,97.27,54.576,97.27,56.805,97.27z      M20.556,75.408c2.042,0,3.662,0,5.915,0c-1.33-1.694-2.378-3.029-3.67-4.675C21.939,72.529,21.35,73.755,20.556,75.408z      M81.248,106.035c0.193-0.098,0.386-0.195,0.578-0.293c-1.934-3.859-3.867-7.72-5.801-11.58     c-0.204,0.104-0.408,0.209-0.613,0.313C77.357,98.328,79.303,102.182,81.248,106.035z M29.386,77.644     c1.142,1.827,1.94,3.104,3.157,5.051c0.158-1.995,0.252-3.188,0.354-4.491C31.773,78.023,30.839,77.875,29.386,77.644z      M59.779,99.457c1.09,1.818,1.868,3.117,2.974,4.961c0.247-1.82,0.407-2.998,0.583-4.295     C62.209,99.912,61.294,99.74,59.779,99.457z M46.873,101.609c0.178,0.087,0.354,0.174,0.532,0.262     c1.569-3.136,3.138-6.271,4.708-9.408c-0.204-0.1-0.407-0.199-0.611-0.3C49.959,95.312,48.416,98.461,46.873,101.609z      M-16.623,42.474c1.014,1.606,1.797,2.849,2.973,4.71c0-2.108,0-3.374,0-4.71C-14.572,42.474-15.352,42.474-16.623,42.474z      M-0.304,37.248c-0.192,0.145-0.386,0.29-0.578,0.436c1.5,2.986,2.999,5.973,4.499,8.96c0.21-0.104,0.42-0.208,0.629-0.313     C2.729,43.303,1.213,40.275-0.304,37.248z M-29.617,43.916c0.188,0.09,0.375,0.18,0.563,0.27     c1.496-3.018,2.992-6.035,4.488-9.052c-0.199-0.096-0.399-0.19-0.6-0.286C-26.649,37.871-28.133,40.894-29.617,43.916z      M16.791,79.114c0.181,0.126,0.361,0.253,0.542,0.379c1.469-2.974,2.938-5.947,4.407-8.921c-0.189-0.092-0.381-0.185-0.57-0.277     C19.71,73.234,18.25,76.175,16.791,79.114z"></path>
			<path fill="#D8D6EB" d="M97.148,35.549c-0.487-0.367-1.683-0.248-2.313,0.089c-11.939,6.38-23.843,12.825-36.139,19.466     c10.398,7.957,20.443,15.673,30.562,23.291c0.514,0.388,1.799,0.197,2.491-0.168c8.063-4.249,16.085-8.573,24.106-12.9     c3.866-2.085,7.707-4.217,11.861-6.492C117.322,50.889,107.268,43.176,97.148,35.549z M13.389,17.569     c9.54-5.046,19.034-10.181,28.532-15.308c2.258-1.219,4.483-2.496,6.909-3.851C38.891-9.197,29.211-16.523,19.649-24     c-1.808-1.413-3.163-1.706-4.827,0.093l-4.826,2.329C-0.508-15.91-10.196-10.682-20.158-5.307     C-9.822,2.596,0.224,10.325,10.369,17.92C10.971,18.369,12.529,18.023,13.389,17.569z M52.119,50.281     c4.169,3.526,7.274,3.591,11.885,0.859c10.14-6.008,20.681-11.338,31.332-17.092C84.723,25.917,74.342,17.963,63.914,9.973     C51.42,16.716,38.996,23.421,26.328,30.258C35.125,37.023,43.898,43.327,52.119,50.281z M83.664,80.713     c-3.826-3.018-7.719-5.951-11.603-8.895c-2.405-1.822-4.958-2.172-7.681-0.672c-3.772,2.076-7.561,4.125-11.145,6.078     c2.184,3.11,4.139,5.823,6.016,8.59c1.639,2.414,3.119,4.938,4.8,7.32c1.619,2.295,3.909,2.882,6.284,1.41     c4.58-2.839,9.13-5.748,13.49-8.906C86.42,83.76,86.269,82.768,83.664,80.713z M7.313,23.494     c-4.029-3.18-8.121-6.283-12.249-9.334c-1.775-1.313-3.864-2.025-5.979-0.967c-4.316,2.161-8.551,4.488-12.445,6.549     c2.316,3.365,4.435,6.391,6.496,9.452c1.333,1.979,2.479,4.093,3.896,6.008c2.189,2.959,3.892,3.562,7.049,1.722     c4.573-2.664,8.969-5.663,13.254-8.775C9.654,26.462,9.543,25.255,7.313,23.494z M45.882,69.404     c2.614-1.825,5.221-3.676,7.696-5.682c2.291-1.855,2.314-2.777,0.03-4.605c-4.083-3.266-8.255-6.428-12.475-9.516     c-1.687-1.234-3.665-1.898-5.745-0.836c-4.288,2.191-8.552,4.43-12.452,6.455c2.577,3.873,4.894,7.395,7.257,10.887     c1.337,1.977,2.688,3.951,4.146,5.839c1.245,1.612,3.026,2.041,4.726,0.983c1.093-0.681,1.812-1.963,3.035-3.361     C43.254,71.74,44.621,70.285,45.882,69.404z M95.782,95.047c0.026,1.818-0.673,2.898-2.599,2.889     c-1.886-0.011-2.358-1.211-2.346-2.836c0.021-2.557,0.006-5.114,0.006-8.312c-4.904,2.642-9.295,5.007-14.379,7.745     c2.354,2.484,4.249,4.74,6.415,6.696c2.163,1.954,4.681,3.515,6.884,5.43c1.271,1.103,2.223,1.194,3.691,0.354     c4.299-2.457,8.704-4.725,13.059-7.083c1.577-0.854,3.127-1.759,4.863-2.739c-5.242-4.006-10.199-7.792-15.606-11.923     C95.771,88.91,95.738,91.979,95.782,95.047z M13.744,46.914c6.222-3.24,12.379-6.605,18.82-10.08     c-5.264-4.03-10.236-7.837-15.686-12.01c0,3.652-0.049,6.743,0.018,9.832c0.04,1.845-0.746,2.955-2.571,2.948     c-1.759-0.007-2.359-1.176-2.316-2.864c0.068-2.678,0.019-5.359,0.019-8.691c-4.419,3.404-8.245,6.352-12.32,9.49     c0.922,1.359,1.652,3.063,2.91,4.166c2.792,2.445,5.814,4.637,8.826,6.815C12.024,46.941,13.182,47.207,13.744,46.914z      M-34.884,13.441c0.478,1.941,0.681,3.352,1.173,4.652c1.402,3.709,2.08,8.146,4.592,10.872     c3.81,4.138,8.822,7.223,13.559,10.407c1.113,0.749,3.158,0.111,4.516,0.111c-2.358-3.377-5.029-6.407-6.796-9.896     C-21.564,22.234-28.619,18.717-34.884,13.441z M41.952,71.49c0.978,3.871,2.085,7.657,3.524,11.313     c0.76,1.934,1.753,4.028,3.252,5.365c3.153,2.814,6.664,5.242,10.119,7.699c2.108,1.5,4.463,2.076,6.679,0.896     c-2.222-3.103-4.821-5.866-6.409-9.124C55.418,80.045,48.352,76.248,41.952,71.49z M11.243,48.963     c0.994,3.375,1.565,6.145,2.629,8.711c1.235,2.982,2.368,6.295,4.51,8.545c2.944,3.094,6.717,5.441,10.283,7.891     c2.659,1.828,3.95,1.742,6.357,0.602c-2.049-2.853-4.608-5.538-6.136-8.719C25.184,58.281,18.06,54.391,11.243,48.963z      M15.138,18.074c-0.669,0.677-1.898,1.337-1.919,2.033c-0.16,5.438-0.089,10.882-0.089,16.264     c1.884,0.414,2.708,0.039,2.688-1.732c-0.057-5.381-0.02-10.763-0.02-16.144C15.578,18.354,15.357,18.215,15.138,18.074z      M94.596,95.286c0.145-5.464,0.082-10.932,0.082-17.327c-1.258,1.243-2.578,1.936-2.603,2.67     c-0.179,5.363-0.096,10.735-0.096,16.104l0.853,0.483C93.447,96.574,94.579,95.945,94.596,95.286z M59.744,57.716v14.252     c1.748-0.144,2.574-0.735,2.501-2.47c-0.11-2.64-0.163-5.296,0.013-7.929C62.393,59.561,61.482,58.514,59.744,57.716z"></path>
		</g>
	</g>
</g>
<g>
	<rect x="124" fill="#F1F1F2" width="104" height="104"></rect>
	<g>
		<defs>
			<rect id="SVGID_3_" x="124" width="104" height="104"></rect>
		</defs>
		<clipPath id="SVGID_4_">
			<use xlink:href="#SVGID_3_"></use>
		</clipPath>
		<g clip-path="url(#SVGID_4_)">
			<path fill="#363890" d="M225.975,73.988c-1.988-1.088-3.217-2.629-3.461-5.18c-0.186-1.916-1.451-3.727-2.131-5.336     c0.515-4.557,1.049-9.097,1.509-13.644c0.046-0.451-0.261-1.025-0.567-1.411c-4.1-5.164-9.311-8.848-15.573-11.657     c-0.38,1.024-0.775,1.881-1.018,2.779c-0.961,3.561-1.673,7.207-2.92,10.662c-0.409,1.137-2.503,2.741-3.224,2.479     c-1.755-0.641-3.593-1.68-4.007-4.138c-0.388-2.308-1.378-4.515-2.348-7.529c0.226-1.406,0.582-3.829,1.006-6.24     c0.807-4.587,0.897-8.938-3.636-11.882c-0.08-0.066-0.155-0.14-0.224-0.219c-2.077-1.508-4.043-3.211-6.255-4.486     c-5.9-3.404-5.723-5.127-7.203,3.625c-0.645,3.813-1.157,7.77-5.164,9.703c-2.492-1.301-4.1-2.828-4.051-5.827     c0.021-1.308-1.205-2.62-1.799-3.96c-0.281-0.635-0.652-1.371-0.567-2.006c0.56-4.195,1.247-8.373,1.84-12.564     c0.052-0.369-0.187-0.859-0.435-1.18c-4.157-5.349-9.445-9.186-15.913-12.002c-0.413,1.196-0.808,2.152-1.071,3.143     c-0.904,3.389-1.535,6.875-2.756,10.143c-0.448,1.197-2.555,2.861-3.371,2.607c-1.645-0.514-3.324-1.63-3.635-4.053     c-0.296-2.306-1.441-4.502-2.324-7.069c0.437-3.862,0.963-8.308,1.41-12.761c0.055-0.543-0.172-1.24-0.51-1.679     c-4.042-5.24-9.316-8.852-15.766-11.815c-0.48,1.781-0.895,3.342-1.324,4.9c-0.816,2.954-1.438,5.988-2.568,8.818     c-0.437,1.092-2.674,2.631-3.006,2.4c-1.709-1.184-3.456-2.66-4.443-4.447c-1.202-2.172-1.66-4.756-2.51-7.377     c0.471-4.063,1.028-8.607,1.482-13.16c0.052-0.52-0.377-1.178-0.75-1.633c-4.122-5.023-9.313-8.613-15.648-11.537     c-0.484,2.034-1.002,3.861-1.345,5.721c-0.765,4.145-1.032,8.516-5.467,10.799c-2.559-1.962-5.021-3.852-7.484-5.74     c-12.318-9.443-24.642-18.88-36.945-28.344c-1.163-0.895-2.046-1.053-3.479-0.242c-6.16,3.486-12.443,6.754-18.668,10.128     c-2.77,1.501-3.055,4.706-0.595,6.591c7.042,5.396,14.097,10.775,21.146,16.162c9.938,7.596,19.888,15.176,29.789,22.82     c0.743,0.573,1.652,1.637,1.604,2.419c-0.39,6.371-1.024,12.727-1.483,19.095c-0.062,0.85,0.187,2.104,0.759,2.509     c0.546,0.385,1.844,0.155,2.568-0.243c3.314-1.828,6.543-3.811,9.729-5.695c1.017,0.783,1.802,1.535,2.716,2.063     c2.043,1.18,2.847,2.776,2.659,5.199c-0.253,3.271-0.12,6.572-0.153,9.861c-0.037,3.709,0.725,4.219,3.968,2.677     c2.298-1.093,4.604-2.167,7.172-3.374c-0.29,3.039-0.653,5.757-0.759,8.484c-0.039,1.027,0.24,2.367,0.907,3.013     c0.409,0.396,1.943-0.038,2.776-0.475c2.271-1.19,4.398-2.659,6.668-3.854c1.061-0.558,2.893-1.396,3.39-0.966     c1.858,1.604,5.057,2.17,4.782,5.715c-0.287,3.717-0.326,7.457-0.393,11.188c-0.052,2.928,1.139,3.668,3.785,2.445     c2.152-0.994,4.288-2.021,6.619-3.124c-0.188,2.828-0.432,5.375-0.487,7.927c-0.02,0.881,0.192,2.299,0.718,2.533     c0.746,0.333,2.002,0.03,2.824-0.406c2.423-1.286,4.729-2.79,7.1-4.175c2.814-1.644,7.547,1.201,7.561,4.552     c0.016,3.822-0.021,7.646-0.023,11.468c-0.001,3.301,0.883,3.879,3.79,2.516c2.026-0.951,4.06-1.891,6.272-2.92     c-0.208,3.047-0.455,5.691-0.551,8.342c-0.08,2.227,1.035,2.877,3.016,1.781c2.559-1.416,5.023-3.006,7.611-4.361     c0.969-0.508,2.686-1.156,3.178-0.727c1.723,1.5,4.692,1.959,4.502,5.295c-0.223,3.898-0.092,7.818-0.07,11.729     c0.016,2.836,1.007,3.426,3.612,2.213c2.187-1.018,4.368-2.051,6.874-3.229c-0.283,3.049-0.627,5.594-0.699,8.146     c-0.027,0.934,0.401,2.047,1.004,2.75c0.262,0.305,1.588-0.039,2.262-0.402c2.334-1.258,4.699-2.504,6.851-4.039     c2.142-1.529,3.662-1.357,5.764,0.311c1.963,1.557,2.848,3.037,2.642,5.521c-0.264,3.184-0.109,6.398-0.273,9.592     c-0.107,2.113,0.154,3.766,2.908,3.539c0,0.75,0,1.277,0,1.807c0,8.088-0.014,16.176,0.006,24.266     c0.009,3.486,3.628,5.76,6.598,4.16c5.924-3.189,11.799-6.473,17.775-9.559c1.843-0.951,2.48-2.088,2.469-4.15     c-0.086-15.551-0.227-31.107,0.068-46.654C230.692,78.885,229.654,76.002,225.975,73.988z M221.129,69.234     c-0.23,0.174-0.461,0.346-0.69,0.52c-1.228-0.943-2.455-1.889-4.235-3.258c1.288-0.424,2.582-1.104,2.778-0.869     C219.867,66.688,220.441,68.008,221.129,69.234z M206.1,38.171c5.535,2.741,10.484,5.707,14.036,10.547     c0.327,0.447,0.567,1.117,0.521,1.654c-0.268,3.075-0.593,6.147-0.98,9.21c-0.338,2.666-1.514,4.855-4.165,6.402     c-5.158-3.939-10.39-7.938-15.922-12.164C205.23,50.075,204.63,43.948,206.1,38.171z M192.846,47.644     c-0.236,0.146-0.472,0.291-0.708,0.436c-1.141-0.863-2.28-1.727-4.04-3.061c1.344-0.412,2.701-1.098,2.906-0.846     C191.813,45.171,192.263,46.462,192.846,47.644z M178.097,16.681c5.132,2.563,9.833,5.328,13.304,9.754     c0.506,0.646,1.088,1.533,1.037,2.268c-0.252,3.605-0.667,7.201-1.119,10.789c-0.096,0.757-0.506,1.512-0.908,2.186     c-1.654,2.776-2.721,2.979-5.28,1.033c-4.491-3.415-8.97-6.848-13.707-10.469C177.365,28.565,176.35,22.101,178.097,16.681z      M165.127,26.47c-0.228,0.135-0.455,0.27-0.682,0.403c-1.158-0.892-2.316-1.784-3.474-2.675     c-0.019-0.275-0.036-0.549-0.054-0.823c0.807-0.181,2.108-0.753,2.332-0.472C164.068,23.938,164.53,25.257,165.127,26.47z      M150.316-4.602c5.174,2.532,9.823,5.377,13.324,9.755c0.556,0.695,1.105,1.701,1.053,2.524     c-0.209,3.343-0.602,6.677-1.045,9.999c-0.125,0.931-0.549,1.869-1.022,2.697c-1.642,2.87-2.682,3.064-5.276,1.082     c-4.484-3.428-8.958-6.871-13.681-10.496C149.617,7.255,148.598,0.797,150.316-4.602z M137.412,5.016     c-0.248,0.198-0.496,0.396-0.744,0.595c-1.234-0.941-2.471-1.883-4.145-3.158c1.074-0.5,2.373-1.301,2.51-1.137     C135.963,2.436,136.647,3.759,137.412,5.016z M122.333-26.03c5.153,2.572,9.81,5.306,13.247,9.629     c0.699,0.879,0.986,2.313,0.973,3.486c-0.027,2.566-0.366,5.129-0.584,7.692c-0.287,3.384-1.422,5.253-4.335,6.974     c-5.138-3.936-10.333-7.914-15.835-12.127C121.557-14.098,120.789-20.386,122.333-26.03z M108.626-17.031     c-0.267,0.167-0.532,0.334-0.8,0.501c-1.161-0.865-2.323-1.73-4.068-3.029c1.227-0.452,2.572-1.211,2.777-0.977     C107.415-19.527,107.959-18.226,108.626-17.031z M93.589-47.962c5.535,2.557,10.263,5.699,13.916,10.281     c0.399,0.502,0.706,1.283,0.655,1.901c-0.27,3.257-0.365,6.576-1.125,9.728c-0.52,2.156-2.027,4.075-3.279,6.451     c-5.898-4.522-11.137-8.539-16.737-12.832C92.865-36.042,92.137-42.239,93.589-47.962z M71.947,10.873     c0.396-4.192,0.754-7.972,1.156-12.231c3.012,2.326,5.648,4.363,8.469,6.541C78.391,7.063,75.369,8.85,71.947,10.873z      M80.18,1.876c-1.126-0.858-2.156-1.889-3.385-2.557c-3.178-1.725-4.231-4.192-2.875-7.908     c4.393,3.344,8.768,6.676,13.377,10.186C83.484,4.389,83.482,4.39,80.18,1.876z M88.418,8.173     c-1.25-0.926-2.258-1.672-3.623-2.683c1.301-0.757,2.354-1.368,3.623-2.106C88.418,5.058,88.418,6.405,88.418,8.173z      M94.455,23.162c-1.4,0.28-2.672,1.207-3.946,1.811c0-6.897,0-13.575,0-20.856c3.362,2.549,6.292,4.628,9.021,6.947     c0.605,0.516,0.633,1.867,0.689,2.847C100.474,18.317,99.753,22.101,94.455,23.162z M100.705,32.817     c0.266-3.645,0.459-6.732,0.733-9.814c0.118-1.332,0.76-2.08,2.09-1.071c2.167,1.644,4.279,3.357,6.694,5.261     C107.01,29.092,104.088,30.818,100.705,32.817z M102.314,18.782c0-1.68,0-3.359,0-5.568c1.807,1.331,3.285,2.42,5.015,3.694     C105.401,17.628,103.857,18.205,102.314,18.782z M111.927,26.237c-2.374-1.85-4.721-3.679-7.087-5.523     c3.609-2.678,3.811-2.679,7.293-0.039c1.244,0.943,2.482,1.893,3.949,3.012C114.538,24.634,113.289,25.401,111.927,26.237z      M117.128,30.159c-1.296-0.94-2.323-1.686-3.626-2.63c1.246-0.775,2.292-1.427,3.626-2.257     C117.128,27.029,117.128,28.415,117.128,30.159z M126.439,43.5c-2.344,1.198-4.746,2.28-7.23,3.464c0-6.916,0-13.555,0-20.869     c3.204,2.447,5.965,4.425,8.564,6.595C129.098,33.794,127.921,42.742,126.439,43.5z M128.584,54.216     c0.303-3.188,0.459-5.98,0.863-8.738c0.299-2.028,1.485-2.475,3.102-1.291c1.832,1.342,3.585,2.792,5.618,4.389     C134.947,50.47,131.941,52.239,128.584,54.216z M129.736,35.101c0.299-0.106,0.597-0.213,0.895-0.32     c1.715,1.336,3.429,2.672,5.724,4.461c-2.126,0.563-3.783,1-5.439,1.438C130.521,38.819,130.129,36.96,129.736,35.101z      M136.584,45.101c-1.024-0.813-2.057-1.616-3.279-2.575c4.969-2.642,5.054-2.618,10.463,2.551     C140.014,47.826,140.016,47.825,136.584,45.101z M145.021,51.646c-1.414-1.128-2.355-1.878-3.521-2.807     c1.254-0.757,2.262-1.365,3.521-2.127C145.021,48.439,145.021,49.739,145.021,51.646z M155.281,63.594     c-0.066,0.506-0.568,1.137-1.039,1.373c-2.335,1.18-4.727,2.244-7.119,3.359c0-6.888,0-13.565,0-20.852     c2.938,2.231,5.35,4.013,7.691,5.88c0.57,0.455,1.318,1.215,1.291,1.803C155.975,57.978,155.65,60.792,155.281,63.594z      M156.377,75.473c0.248-3.008,0.351-5.639,0.712-8.234c0.335-2.402,1.754-2.939,3.636-1.512c1.681,1.273,3.309,2.617,5.197,4.119     C162.75,71.715,159.693,73.518,156.377,75.473z M157.352,56.517c0.316-0.157,0.635-0.313,0.951-0.47     c1.777,1.345,3.553,2.69,5.915,4.479c-2.054,0.637-3.663,1.137-5.271,1.636C158.415,60.28,157.883,58.397,157.352,56.517z      M167.586,68.861c-2.031-1.576-4.036-3.133-6.293-4.885c4.814-2.761,4.979-2.72,10.35,2.498     C170.282,67.273,168.977,68.043,167.586,68.861z M172.834,72.914c-1.333-1.031-2.313-1.789-3.582-2.771     c1.268-0.77,2.311-1.4,3.582-2.172C172.834,69.861,172.834,71.082,172.834,72.914z M174.889,89.469c0-6.732,0-13.428,0-20.75     c3.103,2.381,5.74,4.313,8.25,6.4c0.541,0.449,0.914,1.479,0.863,2.205C183.246,88.002,185.093,84.602,174.889,89.469z      M184.508,96.996c0.244-3.434,0.291-6.469,0.75-9.439c0.209-1.342,1.424-1.951,2.793-0.885c1.866,1.455,3.731,2.912,5.98,4.666     C190.762,93.279,187.85,95.01,184.508,96.996z M185.805,77.107c2.334,1.783,3.982,3.043,5.632,4.301     c-0.019,0.279-0.036,0.557-0.054,0.836c-1.672,0.322-3.342,0.645-5.014,0.969C186.203,81.42,186.037,79.627,185.805,77.107z      M192.551,87.951c-1.102-0.869-2.207-1.734-3.496-2.746c4.684-2.617,4.684-2.617,10.553,2.637     C195.958,90.648,195.959,90.648,192.551,87.951z M200.897,94.4c-1.249-0.965-2.299-1.775-3.577-2.762     c1.306-0.783,2.32-1.393,3.577-2.146C200.897,91.195,200.897,92.566,200.897,94.4z M203.49,110.871     c-0.15-0.002-0.301-0.004-0.45-0.006c0-6.545,0-13.088,0-19.633c0.149,0.002,0.3,0.002,0.45,0.004     C203.49,97.781,203.49,104.326,203.49,110.871z M207.428,142.727c-2.205-0.705-2.709-1.971-2.699-3.916     c0.078-15.283,0.018-30.568,0.081-45.854c0.007-1.768-0.515-2.863-1.956-3.965c-43.137-32.958-86.232-65.969-129.33-98.978     C55.989-23.416,38.467-36.862,20.945-50.309c-1.303-0.999-3.037-1.796-2.011-4.351c2.31,1.726,4.601,3.4,6.854,5.127     c29.568,22.656,59.124,45.327,88.696,67.979c30.352,23.247,60.723,46.47,91.045,69.755c0.865,0.664,1.813,1.916,1.818,2.9     C207.459,108.25,207.428,125.4,207.428,142.727z M206.244,87.693c-41.16-31.603-82.35-63.165-123.545-94.722     c-20.914-16.02-41.846-32.018-62.768-48.028c-0.209-0.161-0.396-0.352-0.844-0.751c4.15-2.248,8.156-4.42,12.164-6.589     c2.334-1.264,4.752-2.396,6.979-3.825c1.47-0.943,2.444-0.672,3.712,0.302c22.926,17.618,45.877,35.202,68.828,52.786     c23.305,17.855,46.613,35.701,69.922,53.549c0.35,0.268,0.717,0.512,1.148,0.818l16.982,13.088     c9.75,7.476,19.851,15.22,30.321,23.247c-2.786,1.516-5.294,2.879-7.801,4.242c-3.81,2.07-7.665,4.063-11.403,6.252     C208.463,88.928,207.539,88.688,206.244,87.693z M227.484,133.17c-5.652,2.92-11.225,5.992-16.833,8.998     c-0.594,0.316-1.228,0.559-2.044,0.928c-0.041-0.947-0.099-1.629-0.099-2.313c-0.005-16.242,0.024-32.484-0.042-48.727     c-0.006-1.635,0.456-2.531,1.92-3.295c5.721-2.984,11.369-6.107,17.054-9.162c0.512-0.275,1.087-0.434,1.95-0.771     c0,7.361,0.002,14.436,0,21.508c-0.001,9.852-0.045,19.703,0.034,29.553C229.438,131.529,228.959,132.408,227.484,133.17z"></path>
			<path fill="#D8D6EB" d="M221.345,81.811c2.507-1.363,5.015-2.727,7.801-4.242c-10.471-8.027-20.571-15.771-30.321-23.247     l-16.982-13.088c-0.432-0.307-0.799-0.551-1.148-0.818c-23.309-17.848-46.617-35.693-69.922-53.549     C87.82-30.718,64.869-48.302,41.943-65.92c-1.268-0.974-2.242-1.245-3.712-0.302c-2.228,1.43-4.646,2.562-6.979,3.825     c-4.008,2.169-8.014,4.341-12.164,6.589c0.447,0.399,0.635,0.59,0.844,0.751C40.854-39.046,61.785-23.048,82.699-7.028     c41.195,31.557,82.385,63.119,123.545,94.722c1.295,0.994,2.219,1.234,3.697,0.369C213.68,85.873,217.535,83.881,221.345,81.811z      M229.391,100.336c0.002-7.072,0-14.146,0-21.508c-0.863,0.338-1.438,0.496-1.95,0.771c-5.685,3.055-11.333,6.178-17.054,9.162     c-1.464,0.764-1.926,1.66-1.92,3.295c0.066,16.242,0.037,32.484,0.042,48.727c0,0.684,0.058,1.365,0.099,2.313     c0.816-0.369,1.45-0.611,2.044-0.928c5.608-3.006,11.181-6.078,16.833-8.998c1.475-0.762,1.953-1.641,1.94-3.281     C229.346,120.039,229.39,110.188,229.391,100.336z M205.529,88.201c-30.322-23.285-60.693-46.508-91.045-69.755     C84.912-4.205,55.356-26.876,25.788-49.532c-2.253-1.727-4.544-3.401-6.854-5.127c-1.026,2.555,0.708,3.352,2.011,4.351     C38.467-36.862,55.989-23.416,73.523-9.985c43.098,33.009,86.193,66.02,129.33,98.978c1.441,1.102,1.963,2.197,1.956,3.965     c-0.063,15.285-0.003,30.57-0.081,45.854c-0.01,1.945,0.494,3.211,2.699,3.916c0-17.326,0.031-34.477-0.08-51.625     C207.342,90.117,206.395,88.865,205.529,88.201z M107.035-26.052c0.76-3.151,0.855-6.471,1.125-9.728     c0.051-0.618-0.256-1.399-0.655-1.901c-3.653-4.582-8.381-7.725-13.916-10.281c-1.452,5.723-0.724,11.92-6.57,15.529     c5.601,4.293,10.839,8.31,16.737,12.832C105.008-21.977,106.516-23.896,107.035-26.052z M135.969-5.223     c0.218-2.563,0.557-5.126,0.584-7.692c0.014-1.174-0.273-2.607-0.973-3.486c-3.438-4.323-8.094-7.057-13.247-9.629     c-1.544,5.645-0.776,11.933-6.534,15.654c5.502,4.213,10.697,8.191,15.835,12.127C134.547,0.03,135.682-1.839,135.969-5.223z      M219.676,59.582c0.388-3.063,0.713-6.135,0.98-9.21c0.047-0.537-0.193-1.207-0.521-1.654c-3.552-4.84-8.501-7.806-14.036-10.547     c-1.47,5.777-0.869,11.904-6.511,15.649c5.532,4.227,10.764,8.225,15.922,12.164C218.162,64.438,219.338,62.248,219.676,59.582z      M162.626,20.374c0.474-0.828,0.897-1.767,1.022-2.697c0.443-3.322,0.836-6.656,1.045-9.999c0.053-0.823-0.497-1.829-1.053-2.524     c-3.501-4.378-8.15-7.223-13.324-9.755c-1.719,5.398-0.699,11.856-6.647,15.562c4.723,3.625,9.196,7.068,13.681,10.496     C159.944,23.438,160.984,23.244,162.626,20.374z M190.41,41.677c0.402-0.674,0.813-1.429,0.908-2.186     c0.452-3.588,0.867-7.184,1.119-10.789c0.051-0.734-0.531-1.621-1.037-2.268c-3.471-4.426-8.172-7.19-13.304-9.754     c-1.747,5.42-0.731,11.885-6.674,15.561c4.737,3.621,9.216,7.054,13.707,10.469C187.689,44.656,188.756,44.453,190.41,41.677z"></path>
		</g>
	</g>
</g>
</svg>